<svg width="67" height="60" viewBox="0 0 67 60" fill="none" xmlns="http://www.w3.org/2000/svg">
<path d="M22.0923 12.3287L1.43186 0.327785C0.796444 -0.0413033 0 0.417126 0 1.15196V34.5957C0 34.9337 0.179005 35.2464 0.470456 35.4176L8.19077 39.9516C8.82616 40.3247 9.62656 39.8666 9.62656 39.1297V17.3054C9.62656 17.0125 9.9431 16.829 10.1973 16.9745L22.1051 23.793C23.289 24.4709 24.7448 24.4646 25.9228 23.7764L37.5514 16.9828C37.8056 16.8344 38.125 17.0142 38.125 17.3086V27.975C38.125 28.6378 37.7807 29.2539 37.2157 29.6005L25.2359 36.9513C24.9534 37.1246 24.7812 37.4322 24.7812 37.7636V48.5329C24.7812 48.8599 24.9489 49.1641 25.2254 49.3387L40.9166 59.2489C42.128 60.0141 43.6662 60.0353 44.8984 59.304L64.8522 47.4603C66.0094 46.7735 66.7188 45.5275 66.7188 44.1819V23.5665C66.7188 22.8249 65.909 22.3674 65.2738 22.7501L58.9565 26.5557C57.8114 27.2455 57.1112 28.4846 57.1112 29.8214V40.1542C57.1112 40.4917 56.9327 40.8041 56.6418 40.9754L44.8397 47.9259C43.6381 48.6336 42.146 48.6287 40.949 47.9133L34.5992 44.118C33.9962 43.7575 33.977 42.8908 34.5635 42.5041L46.0378 34.9382C47.1077 34.2328 47.7516 33.0369 47.7516 31.7554V1.16164C47.7516 0.424594 46.9508 -0.0335466 46.3154 0.339983L25.9393 12.3186C24.7528 13.0161 23.2824 13.02 22.0923 12.3287Z" fill="#007FFF"/>
</svg>
